<svg data-v-423bf9ae="" xmlns="http://www.w3.org/2000/svg" viewBox="0 0 480 90" class="iconLeftSlogan"><!----><!----><!----><g data-v-423bf9ae="" id="2c2fa789-fc68-42d0-8e0b-93ed6e9ce9f0" fill="black" transform="matrix(5.439710013831304,0,0,5.439710013831304,109.61920758262607,-9.138712947957835)"><path d="M6.27 2.45L0.07 12.60L0.91 12.60L2.69 9.66L7.38 9.66L8.11 12.60L8.89 12.60ZM6.01 4.17L7.20 8.93L3.12 8.93ZM10.33 9.93C10.33 9.03 10.63 8.28 11.24 7.66C11.84 7.05 12.56 6.75 13.40 6.75C13.89 6.75 14.31 6.85 14.64 7.05C14.98 7.25 15.20 7.50 15.30 7.81L15.47 6.87C15.29 6.61 15.02 6.41 14.67 6.26C14.31 6.12 13.90 6.05 13.45 6.05C12.41 6.05 11.51 6.43 10.75 7.19C10.00 7.95 9.62 8.88 9.62 9.97C9.62 10.82 9.87 11.49 10.37 11.98C10.88 12.47 11.56 12.71 12.42 12.71C13.31 12.71 14.04 12.44 14.59 11.89L14.76 10.95C14.55 11.26 14.24 11.51 13.83 11.71C13.42 11.91 12.96 12.01 12.46 12.01C11.80 12.01 11.28 11.82 10.90 11.43C10.52 11.04 10.33 10.54 10.33 9.93ZM16.81 9.93C16.81 9.03 17.12 8.28 17.72 7.66C18.32 7.05 19.04 6.75 19.88 6.75C20.37 6.75 20.79 6.85 21.13 7.05C21.46 7.25 21.68 7.50 21.78 7.81L21.95 6.87C21.77 6.61 21.51 6.41 21.15 6.26C20.79 6.12 20.38 6.05 19.94 6.05C18.89 6.05 17.99 6.43 17.23 7.19C16.48 7.95 16.10 8.88 16.10 9.97C16.10 10.82 16.35 11.49 16.86 11.98C17.36 12.47 18.04 12.71 18.90 12.71C19.80 12.71 20.52 12.44 21.07 11.89L21.24 10.95C21.03 11.26 20.72 11.51 20.31 11.71C19.90 11.91 19.45 12.01 18.94 12.01C18.28 12.01 17.76 11.82 17.38 11.43C17.00 11.04 16.81 10.54 16.81 9.93ZM28.01 8.85L23.48 8.85C23.61 8.25 23.93 7.74 24.44 7.33C24.95 6.91 25.53 6.71 26.19 6.71C26.78 6.71 27.23 6.89 27.55 7.26C27.87 7.63 28.03 8.08 28.03 8.62C28.03 8.64 28.03 8.68 28.02 8.74C28.02 8.79 28.01 8.83 28.01 8.85ZM23.34 9.48L28.63 9.48C28.70 9.30 28.74 9.01 28.74 8.61C28.74 7.87 28.51 7.26 28.04 6.78C27.56 6.29 26.95 6.05 26.18 6.05C25.20 6.05 24.36 6.42 23.65 7.16C22.94 7.90 22.58 8.87 22.58 10.05C22.58 10.84 22.84 11.48 23.36 11.97C23.88 12.46 24.54 12.71 25.35 12.71C26.45 12.71 27.44 12.18 28.32 11.10L27.85 10.65C27.54 11.07 27.16 11.41 26.72 11.65C26.28 11.90 25.83 12.03 25.40 12.03C24.73 12.03 24.22 11.84 23.85 11.47C23.48 11.09 23.30 10.58 23.30 9.94C23.30 9.79 23.31 9.64 23.34 9.48ZM29.96 10.36L29.36 10.58C29.37 11.16 29.56 11.66 29.94 12.08C30.32 12.50 30.85 12.71 31.54 12.71C32.19 12.71 32.73 12.55 33.16 12.22C33.59 11.90 33.81 11.39 33.81 10.71C33.81 10.40 33.73 10.13 33.57 9.88C33.41 9.64 33.24 9.46 33.06 9.34C32.88 9.22 32.63 9.08 32.31 8.92C32.27 8.90 32.16 8.85 31.96 8.76C31.77 8.67 31.64 8.60 31.58 8.56C31.52 8.52 31.43 8.45 31.30 8.36C31.18 8.28 31.10 8.18 31.06 8.08C31.02 7.98 31.00 7.85 31.00 7.71C31.00 7.37 31.12 7.11 31.38 6.95C31.64 6.79 31.96 6.71 32.34 6.71C32.98 6.71 33.42 7.05 33.66 7.73L34.27 7.45C34.20 7.05 34.00 6.71 33.68 6.45C33.37 6.18 32.92 6.05 32.34 6.05C31.81 6.05 31.33 6.19 30.91 6.47C30.49 6.76 30.28 7.19 30.28 7.77C30.28 8.01 30.32 8.23 30.41 8.41C30.49 8.60 30.62 8.76 30.80 8.90C30.98 9.03 31.13 9.14 31.27 9.21C31.40 9.29 31.59 9.38 31.84 9.48C32.69 9.84 33.11 10.27 33.11 10.77C33.11 11.17 32.97 11.48 32.69 11.71C32.41 11.94 32.04 12.05 31.57 12.05C31.06 12.05 30.66 11.88 30.39 11.54C30.12 11.20 29.98 10.81 29.96 10.36ZM35.42 10.36L34.82 10.58C34.83 11.16 35.02 11.66 35.40 12.08C35.78 12.50 36.31 12.71 37.00 12.71C37.65 12.71 38.19 12.55 38.62 12.22C39.05 11.90 39.27 11.39 39.27 10.71C39.27 10.40 39.19 10.13 39.03 9.88C38.87 9.64 38.70 9.46 38.52 9.34C38.34 9.22 38.09 9.08 37.77 8.92C37.73 8.90 37.62 8.85 37.42 8.76C37.23 8.67 37.10 8.60 37.04 8.56C36.98 8.52 36.89 8.45 36.76 8.36C36.64 8.28 36.56 8.18 36.52 8.08C36.48 7.98 36.46 7.85 36.46 7.71C36.46 7.37 36.58 7.11 36.84 6.95C37.10 6.79 37.42 6.71 37.80 6.71C38.44 6.71 38.88 7.05 39.12 7.73L39.73 7.45C39.66 7.05 39.46 6.71 39.14 6.45C38.83 6.18 38.38 6.05 37.80 6.05C37.27 6.05 36.79 6.19 36.37 6.47C35.95 6.76 35.74 7.19 35.74 7.77C35.74 8.01 35.78 8.23 35.87 8.41C35.95 8.60 36.08 8.76 36.26 8.90C36.44 9.03 36.59 9.14 36.73 9.21C36.86 9.29 37.05 9.38 37.30 9.48C38.15 9.84 38.57 10.27 38.57 10.77C38.57 11.17 38.43 11.48 38.15 11.71C37.87 11.94 37.50 12.05 37.03 12.05C36.52 12.05 36.12 11.88 35.85 11.54C35.58 11.20 35.44 10.81 35.42 10.36ZM46.48 2.80L44.76 12.60L45.53 12.60L46.38 7.76L52.19 7.76L51.34 12.60L52.11 12.60L53.83 2.80L53.06 2.80L52.32 7.00L46.51 7.00L47.25 2.80ZM55.33 10.22L56.04 6.16L55.34 6.16L54.60 10.36C54.54 10.66 54.52 10.92 54.52 11.14C54.52 11.66 54.68 12.05 55.00 12.31C55.32 12.58 55.76 12.71 56.32 12.71C57.26 12.71 58.00 12.31 58.53 11.51L58.34 12.60L59.04 12.60L60.17 6.16L59.47 6.16L58.76 10.22C58.64 10.72 58.35 11.15 57.91 11.49C57.47 11.84 56.98 12.01 56.45 12.01C56.00 12.01 55.69 11.93 55.52 11.75C55.34 11.58 55.26 11.30 55.26 10.91C55.26 10.73 55.28 10.50 55.33 10.22ZM61.96 11.12C62.12 11.62 62.40 12.01 62.80 12.29C63.19 12.57 63.67 12.71 64.23 12.71C65.25 12.71 66.12 12.36 66.85 11.64C67.58 10.93 67.94 9.95 67.94 8.72C67.94 7.89 67.69 7.24 67.19 6.76C66.69 6.29 66.05 6.05 65.27 6.05C64.75 6.05 64.25 6.18 63.78 6.44C63.32 6.70 62.92 7.06 62.59 7.52L63.63 1.68L62.93 1.68L61.00 12.60L61.70 12.60ZM67.19 8.76C67.19 9.78 66.89 10.58 66.31 11.15C65.73 11.72 65.03 12.01 64.20 12.01C63.66 12.01 63.20 11.83 62.80 11.47C62.41 11.11 62.22 10.61 62.22 9.95C62.22 9.94 62.23 9.79 62.26 9.48L62.30 9.18C62.47 8.45 62.84 7.86 63.41 7.41C63.98 6.97 64.55 6.75 65.14 6.75C65.77 6.75 66.26 6.92 66.63 7.27C67.00 7.61 67.19 8.11 67.19 8.76Z"></path></g><!----><g data-v-423bf9ae="" id="271fad4d-0942-494d-be0e-86bf4875cd87" transform="matrix(2.8125,0,0,2.8125,0,0)" stroke="none" fill="black"><path d="M0 32h32V0H0v32zm19.377-19.492l6.936-6.936v20.855h-6.936V12.508zM5.688 5.572l6.936 6.936v13.919H5.688V5.572z"></path></g><!----><g data-v-423bf9ae="" id="15e935dc-6e1a-4a51-bebe-b0c92d75cce3" fill="black" transform="matrix(0.9940913839591274,0,0,0.9940913839591274,109.64212678291605,54.34362100472636)"><path d="M4.40 6.98L3.04 10.75L5.72 10.75L4.40 6.98ZM3.08 14.40L0.36 14.40L0.39 14.11L1.36 13.90L4.35 5.82L4.72 5.73L7.55 13.95L8.46 14.08L8.40 14.39L5.61 14.39L5.67 14.10L6.80 13.90L5.85 11.13L2.90 11.13L1.89 13.95L3.14 14.08L3.08 14.40ZM17.36 6.33L16.12 6.16L16.15 5.89L19.25 5.89L19.22 6.16L18.07 6.32L18.07 11.01Q18.07 11.87 18.25 12.49Q18.43 13.10 18.78 13.45Q19.13 13.79 19.57 13.95Q20.02 14.11 20.61 14.11L20.61 14.11Q21.79 14.11 22.43 13.40Q23.07 12.68 23.07 11.33L23.07 11.33L23.07 6.33L21.80 6.16L21.83 5.89L24.74 5.89L24.68 6.16L23.55 6.32L23.53 11.05Q23.52 12.78 22.78 13.68Q22.05 14.58 20.38 14.58L20.38 14.58Q19.89 14.58 19.46 14.49Q19.04 14.40 18.64 14.16Q18.25 13.93 17.97 13.56Q17.69 13.19 17.52 12.60Q17.36 12.01 17.36 11.24L17.36 11.24L17.36 6.33ZM32.48 8.09L32.42 5.89L39.48 5.89L39.24 8.16L38.90 8.12L38.78 6.24L36.24 6.24L36.24 13.90L37.45 14.08L37.38 14.40L34.28 14.40L34.32 14.11L35.51 13.90L35.51 6.24L33.08 6.24L32.84 8.15L32.48 8.09ZM48.41 6.33L47.18 6.16L47.20 5.89L50.32 5.89L50.29 6.16L49.13 6.32L49.13 9.95L54.04 9.95L54.04 6.33L52.78 6.16L52.83 5.89L55.94 5.89L55.88 6.16L54.74 6.32L54.74 13.95L55.99 14.08L55.95 14.40L52.85 14.40L52.90 14.11L54.04 13.90L54.04 10.36L49.13 10.36L49.13 13.95L50.40 14.08L50.33 14.40L47.24 14.40L47.27 14.11L48.41 13.90L48.41 6.33ZM64.93 6.36L63.70 6.18L63.75 5.89L69.95 5.89L69.73 8.07L69.42 8.03L69.29 6.24L65.64 6.24L65.64 9.89L67.93 9.89L68.18 8.94L68.55 8.89L68.33 11.55L67.98 11.61L67.87 10.26L65.64 10.26L65.64 14.03L69.48 14.03L69.99 12.19L70.27 12.26L70.06 14.40L63.72 14.40L63.77 14.11L64.93 13.90L64.93 6.36ZM79.22 6.36L77.96 6.14L78.01 5.89L80.08 5.89L84.81 13.17L84.81 6.33L83.56 6.16L83.60 5.89L86.50 5.89L86.44 6.16L85.31 6.32L85.31 14.44L84.94 14.52L79.73 6.65L79.73 13.95L80.99 14.08L80.92 14.40L78.04 14.40L78.08 14.11L79.22 13.90L79.22 6.36ZM94.24 8.09L94.17 5.89L101.23 5.89L100.99 8.16L100.65 8.12L100.54 6.24L98 6.24L98 13.90L99.21 14.08L99.13 14.40L96.04 14.40L96.07 14.11L97.27 13.90L97.27 6.24L94.83 6.24L94.60 8.15L94.24 8.09ZM110.11 6.33L108.92 6.16L108.96 5.89L112.09 5.89L112.04 6.16L110.84 6.32L110.84 13.95L112.16 14.08L112.10 14.40L108.99 14.40L109.03 14.11L110.11 13.90L110.11 6.33ZM119.90 10.25L119.90 10.25Q119.90 9.73 120.01 9.21Q120.11 8.68 120.32 8.17Q120.52 7.66 120.85 7.22Q121.17 6.77 121.59 6.44Q122.00 6.10 122.56 5.90Q123.12 5.71 123.75 5.71L123.75 5.71Q125.17 5.71 126.08 6.39L126.08 6.39L125.86 8.70L125.54 8.64L125.34 6.87Q124.74 6.09 123.43 6.09L123.43 6.09Q122.28 6.09 121.45 7.19Q120.63 8.30 120.63 10.00L120.63 10.00Q120.63 11.92 121.43 12.97Q122.23 14.03 123.71 14.03L123.71 14.03Q124.44 14.03 125.13 13.65Q125.82 13.28 126.29 12.74L126.29 12.74L126.45 12.99Q126.28 13.25 125.99 13.51Q125.71 13.77 125.32 14.02Q124.93 14.27 124.43 14.42Q123.92 14.57 123.40 14.57L123.40 14.57Q121.82 14.57 120.86 13.40Q119.90 12.22 119.90 10.25ZM138.19 6.98L136.82 10.75L139.51 10.75L138.19 6.98ZM136.87 14.40L134.14 14.40L134.18 14.11L135.15 13.90L138.14 5.82L138.50 5.73L141.34 13.95L142.24 14.08L142.19 14.39L139.39 14.39L139.45 14.10L140.59 13.90L139.64 11.13L136.68 11.13L135.67 13.95L136.93 14.08L136.87 14.40ZM149.99 8.09L149.93 5.89L156.99 5.89L156.75 8.16L156.41 8.12L156.29 6.24L153.75 6.24L153.75 13.90L154.96 14.08L154.89 14.40L151.79 14.40L151.83 14.11L153.02 13.90L153.02 6.24L150.59 6.24L150.35 8.15L149.99 8.09ZM165.86 6.33L164.68 6.16L164.72 5.89L167.84 5.89L167.79 6.16L166.60 6.32L166.60 13.95L167.92 14.08L167.86 14.40L164.75 14.40L164.78 14.11L165.86 13.90L165.86 6.33ZM176.41 9.75L176.41 9.75Q176.41 11.03 176.77 12.01Q177.13 13.00 177.85 13.57Q178.57 14.14 179.55 14.14L179.55 14.14Q180.12 14.14 180.61 13.92Q181.10 13.70 181.45 13.33Q181.79 12.96 182.04 12.49Q182.28 12.01 182.40 11.50Q182.51 10.99 182.51 10.48L182.51 10.48Q182.51 8.50 181.66 7.29Q180.81 6.07 179.36 6.07L179.36 6.07Q178.78 6.07 178.29 6.28Q177.80 6.49 177.45 6.85Q177.11 7.21 176.87 7.69Q176.63 8.16 176.52 8.69Q176.41 9.21 176.41 9.75ZM175.66 10.16L175.66 10.16Q175.66 8.16 176.75 6.92Q177.85 5.69 179.69 5.69L179.69 5.69Q180.82 5.69 181.64 6.27Q182.46 6.86 182.85 7.84Q183.25 8.83 183.25 10.11L183.25 10.11Q183.25 10.75 183.10 11.38Q182.95 12.00 182.63 12.58Q182.30 13.17 181.84 13.61Q181.38 14.05 180.70 14.32Q180.02 14.58 179.22 14.58L179.22 14.58Q178.17 14.58 177.34 13.98Q176.52 13.37 176.09 12.37Q175.66 11.37 175.66 10.16ZM192.22 6.36L190.96 6.14L191.01 5.89L193.08 5.89L197.80 13.17L197.80 6.33L196.55 6.16L196.59 5.89L199.49 5.89L199.44 6.16L198.30 6.32L198.30 14.44L197.93 14.52L192.73 6.65L192.73 13.95L193.98 14.08L193.92 14.40L191.04 14.40L191.08 14.11L192.22 13.90L192.22 6.36ZM217.10 13.60L217.10 13.60L217.30 11.66L217.63 11.71L217.82 13.21Q218.05 13.64 218.58 13.89Q219.11 14.14 219.71 14.14L219.71 14.14Q220.39 14.14 220.87 13.74Q221.35 13.33 221.35 12.61L221.35 12.61Q221.35 12.20 221.13 11.83Q220.92 11.46 220.57 11.18Q220.23 10.90 219.81 10.63Q219.39 10.36 218.97 10.07Q218.55 9.79 218.21 9.48Q217.86 9.17 217.65 8.75Q217.43 8.33 217.43 7.84L217.43 7.84Q217.43 6.88 218.12 6.29Q218.82 5.71 219.70 5.71L219.70 5.71Q220.29 5.71 220.83 5.90Q221.37 6.09 221.70 6.46L221.70 6.46L221.47 8.58L221.16 8.53L220.97 6.87Q220.79 6.54 220.37 6.32Q219.95 6.10 219.52 6.10L219.52 6.10Q218.93 6.10 218.51 6.48Q218.10 6.87 218.10 7.52L218.10 7.52Q218.10 7.96 218.32 8.35Q218.54 8.74 218.90 9.03Q219.25 9.32 219.67 9.61Q220.10 9.89 220.52 10.17Q220.95 10.45 221.30 10.75Q221.66 11.05 221.88 11.45Q222.10 11.85 222.10 12.29L222.10 12.29Q222.10 13.28 221.35 13.93Q220.60 14.57 219.35 14.57L219.35 14.57Q218.64 14.57 218.04 14.30Q217.44 14.03 217.10 13.60ZM230.75 6.35L229.80 6.15L229.83 5.90L232.68 5.90L232.65 6.15L231.52 6.32L233.66 10.49L235.78 6.34L234.51 6.14L234.53 5.89L237.19 5.89L237.17 6.14L236.29 6.32L233.91 11.05L233.91 13.94L235.14 14.08L235.09 14.40L231.94 14.40L231.98 14.11L233.18 13.90L233.18 11.05L230.75 6.35ZM244.90 13.60L244.90 13.60L245.11 11.66L245.44 11.71L245.63 13.21Q245.85 13.64 246.38 13.89Q246.91 14.14 247.52 14.14L247.52 14.14Q248.20 14.14 248.68 13.74Q249.16 13.33 249.16 12.61L249.16 12.61Q249.16 12.20 248.94 11.83Q248.73 11.46 248.38 11.18Q248.04 10.90 247.61 10.63Q247.19 10.36 246.78 10.07Q246.36 9.79 246.02 9.48Q245.67 9.17 245.45 8.75Q245.24 8.33 245.24 7.84L245.24 7.84Q245.24 6.88 245.93 6.29Q246.63 5.71 247.51 5.71L247.51 5.71Q248.10 5.71 248.64 5.90Q249.18 6.09 249.50 6.46L249.50 6.46L249.28 8.58L248.96 8.53L248.78 6.87Q248.60 6.54 248.18 6.32Q247.76 6.10 247.33 6.10L247.33 6.10Q246.74 6.10 246.32 6.48Q245.91 6.87 245.91 7.52L245.91 7.52Q245.91 7.96 246.13 8.35Q246.35 8.74 246.71 9.03Q247.06 9.32 247.48 9.61Q247.91 9.89 248.33 10.17Q248.76 10.45 249.11 10.75Q249.46 11.05 249.69 11.45Q249.91 11.85 249.91 12.29L249.91 12.29Q249.91 13.28 249.16 13.93Q248.40 14.57 247.16 14.57L247.16 14.57Q246.45 14.57 245.85 14.30Q245.25 14.03 244.90 13.60ZM257.69 8.09L257.62 5.89L264.68 5.89L264.44 8.16L264.10 8.12L263.98 6.24L261.45 6.24L261.45 13.90L262.66 14.08L262.58 14.40L259.49 14.40L259.52 14.11L260.72 13.90L260.72 6.24L258.28 6.24L258.04 8.15L257.69 8.09ZM273.62 6.36L272.39 6.18L272.44 5.89L278.63 5.89L278.42 8.07L278.11 8.03L277.98 6.24L274.33 6.24L274.33 9.89L276.62 9.89L276.87 8.94L277.24 8.89L277.01 11.55L276.66 11.61L276.55 10.26L274.33 10.26L274.33 14.03L278.17 14.03L278.67 12.19L278.95 12.26L278.75 14.40L272.41 14.40L272.45 14.11L273.62 13.90L273.62 6.36ZM289.47 14.40L286.64 14.40L286.67 14.17L287.81 13.96L288.38 6.36L287.12 6.14L287.17 5.89L289.35 5.89L289.84 7.18L291.98 12.84L294.43 6.88L294.85 5.89L297.08 5.89L297.04 6.14L295.87 6.34L296.24 14.01L297.47 14.12L297.46 14.40L294.30 14.40L294.34 14.17L295.51 13.96L295.12 6.41L291.94 13.99L291.60 14.05L288.81 6.53L288.27 14.01L289.51 14.12L289.47 14.40Z"></path></g></svg>