<svg data-v-423bf9ae="" xmlns="http://www.w3.org/2000/svg" viewBox="0 0 369.1931335793404 60" class="font"><!----><!----><!----><g data-v-423bf9ae="" id="38adb17e-fbb1-4339-b2f2-28eabf36b5e2" fill="black" transform="matrix(5.439710013831304,0,0,5.439710013831304,-0.3807771585848627,-9.138712947957835)"><path d="M6.27 2.45L0.07 12.60L0.91 12.60L2.69 9.66L7.38 9.66L8.11 12.60L8.89 12.60ZM6.01 4.17L7.20 8.93L3.12 8.93ZM10.33 9.93C10.33 9.03 10.63 8.28 11.24 7.66C11.84 7.05 12.56 6.75 13.40 6.75C13.89 6.75 14.31 6.85 14.64 7.05C14.98 7.25 15.20 7.50 15.30 7.81L15.47 6.87C15.29 6.61 15.02 6.41 14.67 6.26C14.31 6.12 13.90 6.05 13.45 6.05C12.41 6.05 11.51 6.43 10.75 7.19C10.00 7.95 9.62 8.88 9.62 9.97C9.62 10.82 9.87 11.49 10.37 11.98C10.88 12.47 11.56 12.71 12.42 12.71C13.31 12.71 14.04 12.44 14.59 11.89L14.76 10.95C14.55 11.26 14.24 11.51 13.83 11.71C13.42 11.91 12.96 12.01 12.46 12.01C11.80 12.01 11.28 11.82 10.90 11.43C10.52 11.04 10.33 10.54 10.33 9.93ZM16.81 9.93C16.81 9.03 17.12 8.28 17.72 7.66C18.32 7.05 19.04 6.75 19.88 6.75C20.37 6.75 20.79 6.85 21.13 7.05C21.46 7.25 21.68 7.50 21.78 7.81L21.95 6.87C21.77 6.61 21.51 6.41 21.15 6.26C20.79 6.12 20.38 6.05 19.94 6.05C18.89 6.05 17.99 6.43 17.23 7.19C16.48 7.95 16.10 8.88 16.10 9.97C16.10 10.82 16.35 11.49 16.86 11.98C17.36 12.47 18.04 12.71 18.90 12.71C19.80 12.71 20.52 12.44 21.07 11.89L21.24 10.95C21.03 11.26 20.72 11.51 20.31 11.71C19.90 11.91 19.45 12.01 18.94 12.01C18.28 12.01 17.76 11.82 17.38 11.43C17.00 11.04 16.81 10.54 16.81 9.93ZM28.01 8.85L23.48 8.85C23.61 8.25 23.93 7.74 24.44 7.33C24.95 6.91 25.53 6.71 26.19 6.71C26.78 6.71 27.23 6.89 27.55 7.26C27.87 7.63 28.03 8.08 28.03 8.62C28.03 8.64 28.03 8.68 28.02 8.74C28.02 8.79 28.01 8.83 28.01 8.85ZM23.34 9.48L28.63 9.48C28.70 9.30 28.74 9.01 28.74 8.61C28.74 7.87 28.51 7.26 28.04 6.78C27.56 6.29 26.95 6.05 26.18 6.05C25.20 6.05 24.36 6.42 23.65 7.16C22.94 7.90 22.58 8.87 22.58 10.05C22.58 10.84 22.84 11.48 23.36 11.97C23.88 12.46 24.54 12.71 25.35 12.71C26.45 12.71 27.44 12.18 28.32 11.10L27.85 10.65C27.54 11.07 27.16 11.41 26.72 11.65C26.28 11.90 25.83 12.03 25.40 12.03C24.73 12.03 24.22 11.84 23.85 11.47C23.48 11.09 23.30 10.58 23.30 9.94C23.30 9.79 23.31 9.64 23.34 9.48ZM29.96 10.36L29.36 10.58C29.37 11.16 29.56 11.66 29.94 12.08C30.32 12.50 30.85 12.71 31.54 12.71C32.19 12.71 32.73 12.55 33.16 12.22C33.59 11.90 33.81 11.39 33.81 10.71C33.81 10.40 33.73 10.13 33.57 9.88C33.41 9.64 33.24 9.46 33.06 9.34C32.88 9.22 32.63 9.08 32.31 8.92C32.27 8.90 32.16 8.85 31.96 8.76C31.77 8.67 31.64 8.60 31.58 8.56C31.52 8.52 31.43 8.45 31.30 8.36C31.18 8.28 31.10 8.18 31.06 8.08C31.02 7.98 31.00 7.85 31.00 7.71C31.00 7.37 31.12 7.11 31.38 6.95C31.64 6.79 31.96 6.71 32.34 6.71C32.98 6.71 33.42 7.05 33.66 7.73L34.27 7.45C34.20 7.05 34.00 6.71 33.68 6.45C33.37 6.18 32.92 6.05 32.34 6.05C31.81 6.05 31.33 6.19 30.91 6.47C30.49 6.76 30.28 7.19 30.28 7.77C30.28 8.01 30.32 8.23 30.41 8.41C30.49 8.60 30.62 8.76 30.80 8.90C30.98 9.03 31.13 9.14 31.27 9.21C31.40 9.29 31.59 9.38 31.84 9.48C32.69 9.84 33.11 10.27 33.11 10.77C33.11 11.17 32.97 11.48 32.69 11.71C32.41 11.94 32.04 12.05 31.57 12.05C31.06 12.05 30.66 11.88 30.39 11.54C30.12 11.20 29.98 10.81 29.96 10.36ZM35.42 10.36L34.82 10.58C34.83 11.16 35.02 11.66 35.40 12.08C35.78 12.50 36.31 12.71 37.00 12.71C37.65 12.71 38.19 12.55 38.62 12.22C39.05 11.90 39.27 11.39 39.27 10.71C39.27 10.40 39.19 10.13 39.03 9.88C38.87 9.64 38.70 9.46 38.52 9.34C38.34 9.22 38.09 9.08 37.77 8.92C37.73 8.90 37.62 8.85 37.42 8.76C37.23 8.67 37.10 8.60 37.04 8.56C36.98 8.52 36.89 8.45 36.76 8.36C36.64 8.28 36.56 8.18 36.52 8.08C36.48 7.98 36.46 7.85 36.46 7.71C36.46 7.37 36.58 7.11 36.84 6.95C37.10 6.79 37.42 6.71 37.80 6.71C38.44 6.71 38.88 7.05 39.12 7.73L39.73 7.45C39.66 7.05 39.46 6.71 39.14 6.45C38.83 6.18 38.38 6.05 37.80 6.05C37.27 6.05 36.79 6.19 36.37 6.47C35.95 6.76 35.74 7.19 35.74 7.77C35.74 8.01 35.78 8.23 35.87 8.41C35.95 8.60 36.08 8.76 36.26 8.90C36.44 9.03 36.59 9.14 36.73 9.21C36.86 9.29 37.05 9.38 37.30 9.48C38.15 9.84 38.57 10.27 38.57 10.77C38.57 11.17 38.43 11.48 38.15 11.71C37.87 11.94 37.50 12.05 37.03 12.05C36.52 12.05 36.12 11.88 35.85 11.54C35.58 11.20 35.44 10.81 35.42 10.36ZM46.48 2.80L44.76 12.60L45.53 12.60L46.38 7.76L52.19 7.76L51.34 12.60L52.11 12.60L53.83 2.80L53.06 2.80L52.32 7.00L46.51 7.00L47.25 2.80ZM55.33 10.22L56.04 6.16L55.34 6.16L54.60 10.36C54.54 10.66 54.52 10.92 54.52 11.14C54.52 11.66 54.68 12.05 55.00 12.31C55.32 12.58 55.76 12.71 56.32 12.71C57.26 12.71 58.00 12.31 58.53 11.51L58.34 12.60L59.04 12.60L60.17 6.16L59.47 6.16L58.76 10.22C58.64 10.72 58.35 11.15 57.91 11.49C57.47 11.84 56.98 12.01 56.45 12.01C56.00 12.01 55.69 11.93 55.52 11.75C55.34 11.58 55.26 11.30 55.26 10.91C55.26 10.73 55.28 10.50 55.33 10.22ZM61.96 11.12C62.12 11.62 62.40 12.01 62.80 12.29C63.19 12.57 63.67 12.71 64.23 12.71C65.25 12.71 66.12 12.36 66.85 11.64C67.58 10.93 67.94 9.95 67.94 8.72C67.94 7.89 67.69 7.24 67.19 6.76C66.69 6.29 66.05 6.05 65.27 6.05C64.75 6.05 64.25 6.18 63.78 6.44C63.32 6.70 62.92 7.06 62.59 7.52L63.63 1.68L62.93 1.68L61.00 12.60L61.70 12.60ZM67.19 8.76C67.19 9.78 66.89 10.58 66.31 11.15C65.73 11.72 65.03 12.01 64.20 12.01C63.66 12.01 63.20 11.83 62.80 11.47C62.41 11.11 62.22 10.61 62.22 9.95C62.22 9.94 62.23 9.79 62.26 9.48L62.30 9.18C62.47 8.45 62.84 7.86 63.41 7.41C63.98 6.97 64.55 6.75 65.14 6.75C65.77 6.75 66.26 6.92 66.63 7.27C67.00 7.61 67.19 8.11 67.19 8.76Z"></path></g><!----><!----></svg>